<svg width="1232" height="64" viewBox="0 0 1232 64" fill="none" xmlns="http://www.w3.org/2000/svg">
<rect x="1.5" y="1.5" width="1220" height="61" rx="6.5" fill="white" stroke="#F3F3F4" stroke-width="3"/>
<rect x="1040" width="192" height="64" rx="8" fill="#3077C6"/>
<path d="M1109.42 37.6055C1109.42 36.8555 1109.16 36.2773 1108.62 35.8711C1108.1 35.4648 1107.15 35.0547 1105.78 34.6406C1104.4 34.2266 1103.31 33.7656 1102.5 33.2578C1100.94 32.2812 1100.16 31.0078 1100.16 29.4375C1100.16 28.0625 1100.72 26.9297 1101.84 26.0391C1102.96 25.1484 1104.42 24.7031 1106.21 24.7031C1107.4 24.7031 1108.46 24.9219 1109.39 25.3594C1110.32 25.7969 1111.05 26.4219 1111.58 27.2344C1112.11 28.0391 1112.38 28.9336 1112.38 29.918H1109.42C1109.42 29.0273 1109.14 28.332 1108.58 27.832C1108.02 27.3242 1107.23 27.0703 1106.19 27.0703C1105.22 27.0703 1104.46 27.2773 1103.93 27.6914C1103.39 28.1055 1103.13 28.6836 1103.13 29.4258C1103.13 30.0508 1103.42 30.5742 1104 30.9961C1104.57 31.4102 1105.53 31.8164 1106.86 32.2148C1108.18 32.6055 1109.25 33.0547 1110.05 33.5625C1110.86 34.0625 1111.45 34.6406 1111.82 35.2969C1112.2 35.9453 1112.39 36.707 1112.39 37.582C1112.39 39.0039 1111.84 40.1367 1110.75 40.9805C1109.66 41.8164 1108.18 42.2344 1106.32 42.2344C1105.08 42.2344 1103.95 42.0078 1102.91 41.5547C1101.88 41.0938 1101.07 40.4609 1100.49 39.6562C1099.92 38.8516 1099.64 37.9141 1099.64 36.8438H1102.6C1102.6 37.8125 1102.92 38.5625 1103.56 39.0938C1104.2 39.625 1105.12 39.8906 1106.32 39.8906C1107.35 39.8906 1108.12 39.6836 1108.64 39.2695C1109.16 38.8477 1109.42 38.293 1109.42 37.6055ZM1120.3 42.2344C1118.49 42.2344 1117.03 41.668 1115.9 40.5352C1114.79 39.3945 1114.23 37.8789 1114.23 35.9883V35.6367C1114.23 34.3711 1114.47 33.2422 1114.95 32.25C1115.45 31.25 1116.13 30.4727 1117.02 29.918C1117.9 29.3633 1118.88 29.0859 1119.97 29.0859C1121.7 29.0859 1123.03 29.6367 1123.96 30.7383C1124.91 31.8398 1125.38 33.3984 1125.38 35.4141V36.5625H1117.1C1117.18 37.6094 1117.53 38.4375 1118.14 39.0469C1118.76 39.6562 1119.53 39.9609 1120.46 39.9609C1121.77 39.9609 1122.83 39.4336 1123.65 38.3789L1125.18 39.8438C1124.68 40.6016 1124 41.1914 1123.14 41.6133C1122.3 42.0273 1121.35 42.2344 1120.3 42.2344ZM1119.96 31.3711C1119.18 31.3711 1118.54 31.6445 1118.06 32.1914C1117.58 32.7383 1117.28 33.5 1117.14 34.4766H1122.57V34.2656C1122.51 33.3125 1122.25 32.5938 1121.81 32.1094C1121.36 31.6172 1120.75 31.3711 1119.96 31.3711ZM1135.18 42C1135.05 41.7578 1134.95 41.3633 1134.85 40.8164C1133.95 41.7617 1132.84 42.2344 1131.52 42.2344C1130.25 42.2344 1129.21 41.8711 1128.41 41.1445C1127.6 40.418 1127.2 39.5195 1127.2 38.4492C1127.2 37.0977 1127.7 36.0625 1128.7 35.3438C1129.71 34.6172 1131.14 34.2539 1133.01 34.2539H1134.76V33.4219C1134.76 32.7656 1134.57 32.2422 1134.21 31.8516C1133.84 31.4531 1133.28 31.2539 1132.53 31.2539C1131.88 31.2539 1131.35 31.418 1130.94 31.7461C1130.52 32.0664 1130.32 32.4766 1130.32 32.9766H1127.47C1127.47 32.2812 1127.7 31.6328 1128.16 31.0312C1128.62 30.4219 1129.25 29.9453 1130.04 29.6016C1130.83 29.2578 1131.72 29.0859 1132.7 29.0859C1134.18 29.0859 1135.36 29.4609 1136.25 30.2109C1137.13 30.9531 1137.58 32 1137.61 33.3516V39.0703C1137.61 40.2109 1137.77 41.1211 1138.09 41.8008V42H1135.18ZM1132.05 39.9492C1132.61 39.9492 1133.14 39.8125 1133.63 39.5391C1134.13 39.2656 1134.51 38.8984 1134.76 38.4375V36.0469H1133.22C1132.17 36.0469 1131.38 36.2305 1130.84 36.5977C1130.31 36.9648 1130.05 37.4844 1130.05 38.1562C1130.05 38.7031 1130.23 39.1406 1130.59 39.4688C1130.95 39.7891 1131.44 39.9492 1132.05 39.9492ZM1147.23 31.9219C1146.85 31.8594 1146.46 31.8281 1146.07 31.8281C1144.76 31.8281 1143.88 32.3281 1143.43 33.3281V42H1140.58V29.3203H1143.3L1143.37 30.7383C1144.06 29.6367 1145.01 29.0859 1146.23 29.0859C1146.64 29.0859 1146.97 29.1406 1147.24 29.25L1147.23 31.9219ZM1154 39.9609C1154.71 39.9609 1155.3 39.7539 1155.77 39.3398C1156.24 38.9258 1156.49 38.4141 1156.52 37.8047H1159.2C1159.17 38.5938 1158.93 39.332 1158.46 40.0195C1158 40.6992 1157.38 41.2383 1156.59 41.6367C1155.8 42.0352 1154.95 42.2344 1154.04 42.2344C1152.26 42.2344 1150.86 41.6602 1149.82 40.5117C1148.78 39.3633 1148.26 37.7773 1148.26 35.7539V35.4609C1148.26 33.5312 1148.77 31.9883 1149.8 30.832C1150.84 29.668 1152.24 29.0859 1154.02 29.0859C1155.53 29.0859 1156.76 29.5273 1157.7 30.4102C1158.66 31.2852 1159.16 32.4375 1159.2 33.8672H1156.52C1156.49 33.1406 1156.24 32.543 1155.77 32.0742C1155.31 31.6055 1154.72 31.3711 1154 31.3711C1153.08 31.3711 1152.37 31.707 1151.87 32.3789C1151.37 33.043 1151.11 34.0547 1151.11 35.4141V35.8711C1151.11 37.2461 1151.35 38.2734 1151.84 38.9531C1152.34 39.625 1153.06 39.9609 1154 39.9609ZM1164.16 30.7031C1165.09 29.625 1166.27 29.0859 1167.69 29.0859C1170.39 29.0859 1171.76 30.6289 1171.8 33.7148V42H1168.95V33.8203C1168.95 32.9453 1168.76 32.3281 1168.38 31.9688C1168 31.6016 1167.45 31.418 1166.71 31.418C1165.57 31.418 1164.72 31.9258 1164.16 32.9414V42H1161.31V24H1164.16V30.7031Z" fill="white"/>
<path d="M39.7725 39H38.0762L31.6338 29.1387V39H29.9375V26.2031H31.6338L38.0938 36.1084V26.2031H39.7725V39ZM46.4609 39.1758C45.1719 39.1758 44.123 38.7539 43.3145 37.9102C42.5059 37.0605 42.1016 35.9268 42.1016 34.5088V34.21C42.1016 33.2666 42.2803 32.4258 42.6377 31.6875C43.001 30.9434 43.5049 30.3633 44.1494 29.9473C44.7998 29.5254 45.5029 29.3145 46.2588 29.3145C47.4951 29.3145 48.4561 29.7217 49.1416 30.5361C49.8271 31.3506 50.1699 32.5166 50.1699 34.0342V34.7109H43.7275C43.751 35.6484 44.0234 36.4072 44.5449 36.9873C45.0723 37.5615 45.7402 37.8486 46.5488 37.8486C47.123 37.8486 47.6094 37.7314 48.0078 37.4971C48.4062 37.2627 48.7549 36.9521 49.0537 36.5654L50.0469 37.3389C49.25 38.5635 48.0547 39.1758 46.4609 39.1758ZM46.2588 30.6504C45.6025 30.6504 45.0518 30.8906 44.6064 31.3711C44.1611 31.8457 43.8857 32.5137 43.7803 33.375H48.5439V33.252C48.4971 32.4258 48.2744 31.7871 47.876 31.3359C47.4775 30.8789 46.9385 30.6504 46.2588 30.6504ZM60.4795 36.7588L62.3076 29.4902H63.9336L61.165 39H59.8467L57.5352 31.793L55.2852 39H53.9668L51.207 29.4902H52.8242L54.6963 36.6094L56.9111 29.4902H58.2207L60.4795 36.7588ZM74.2168 32.6279L77.5566 26.2031H79.4727L75.0605 34.2275V39H73.373V34.2275L68.9609 26.2031H70.8945L74.2168 32.6279ZM79.8594 34.1572C79.8594 33.2256 80.041 32.3877 80.4043 31.6436C80.7734 30.8994 81.2832 30.3252 81.9336 29.9209C82.5898 29.5166 83.3369 29.3145 84.1748 29.3145C85.4697 29.3145 86.5156 29.7627 87.3125 30.6592C88.1152 31.5557 88.5166 32.748 88.5166 34.2363V34.3506C88.5166 35.2764 88.3379 36.1084 87.9805 36.8467C87.6289 37.5791 87.1221 38.1504 86.46 38.5605C85.8037 38.9707 85.0479 39.1758 84.1924 39.1758C82.9033 39.1758 81.8574 38.7275 81.0547 37.8311C80.2578 36.9346 79.8594 35.748 79.8594 34.2715V34.1572ZM81.4941 34.3506C81.4941 35.4053 81.7373 36.252 82.2236 36.8906C82.7158 37.5293 83.3721 37.8486 84.1924 37.8486C85.0186 37.8486 85.6748 37.5264 86.1611 36.8818C86.6475 36.2314 86.8906 35.3232 86.8906 34.1572C86.8906 33.1143 86.6416 32.2705 86.1436 31.626C85.6514 30.9756 84.9951 30.6504 84.1748 30.6504C83.3721 30.6504 82.7246 30.9697 82.2324 31.6084C81.7402 32.2471 81.4941 33.1611 81.4941 34.3506ZM95.1523 30.9492C94.9062 30.9082 94.6396 30.8877 94.3525 30.8877C93.2861 30.8877 92.5625 31.3418 92.1816 32.25V39H90.5557V29.4902H92.1377L92.1641 30.5889C92.6973 29.7393 93.4531 29.3145 94.4316 29.3145C94.748 29.3145 94.9883 29.3555 95.1523 29.4375V30.9492ZM99.3096 34.5967L98.29 35.6602V39H96.6641V25.5H98.29V33.665L99.1602 32.6191L102.122 29.4902H104.1L100.399 33.4629L104.53 39H102.623L99.3096 34.5967Z" fill="#383838"/>
<path d="M765.227 39H756.842V37.8311L761.271 32.9092C761.928 32.165 762.379 31.5615 762.625 31.0986C762.877 30.6299 763.003 30.1465 763.003 29.6484C763.003 28.9805 762.801 28.4326 762.396 28.0049C761.992 27.5771 761.453 27.3633 760.779 27.3633C759.971 27.3633 759.341 27.5947 758.89 28.0576C758.444 28.5146 758.222 29.1533 758.222 29.9736H756.596C756.596 28.7959 756.974 27.8438 757.729 27.1172C758.491 26.3906 759.508 26.0273 760.779 26.0273C761.969 26.0273 762.909 26.3408 763.601 26.9678C764.292 27.5889 764.638 28.418 764.638 29.4551C764.638 30.7148 763.835 32.2148 762.229 33.9551L758.802 37.6729H765.227V39ZM778.902 35.6602H773.541L772.337 39H770.597L775.483 26.2031H776.96L781.855 39H780.124L778.902 35.6602ZM774.051 34.2715H778.401L776.222 28.2861L774.051 34.2715ZM782.928 34.166C782.928 32.707 783.273 31.5352 783.965 30.6504C784.656 29.7598 785.562 29.3145 786.681 29.3145C787.794 29.3145 788.676 29.6953 789.326 30.457V25.5H790.952V39H789.458L789.379 37.9805C788.729 38.7773 787.823 39.1758 786.663 39.1758C785.562 39.1758 784.662 38.7246 783.965 37.8223C783.273 36.9199 782.928 35.7422 782.928 34.2891V34.166ZM784.554 34.3506C784.554 35.4287 784.776 36.2725 785.222 36.8818C785.667 37.4912 786.282 37.7959 787.067 37.7959C788.099 37.7959 788.852 37.333 789.326 36.4072V32.0391C788.84 31.1426 788.093 30.6943 787.085 30.6943C786.288 30.6943 785.667 31.002 785.222 31.6172C784.776 32.2324 784.554 33.1436 784.554 34.3506ZM799.354 38.0596C798.722 38.8037 797.793 39.1758 796.568 39.1758C795.555 39.1758 794.781 38.8828 794.248 38.2969C793.721 37.7051 793.454 36.832 793.448 35.6777V29.4902H795.074V35.6338C795.074 37.0752 795.66 37.7959 796.832 37.7959C798.074 37.7959 798.9 37.333 799.311 36.4072V29.4902H800.937V39H799.39L799.354 38.0596ZM805.182 39H803.556V25.5H805.182V39ZM809.998 27.1875V29.4902H811.773V30.7471H809.998V36.6445C809.998 37.0254 810.077 37.3125 810.235 37.5059C810.394 37.6934 810.663 37.7871 811.044 37.7871C811.231 37.7871 811.489 37.752 811.817 37.6816V39C811.39 39.1172 810.974 39.1758 810.569 39.1758C809.843 39.1758 809.295 38.9561 808.926 38.5166C808.557 38.0771 808.372 37.4531 808.372 36.6445V30.7471H806.641V29.4902H808.372V27.1875H809.998ZM819.218 36.4775C819.218 36.0381 819.051 35.6982 818.717 35.458C818.389 35.2119 817.812 35.001 816.985 34.8252C816.165 34.6494 815.512 34.4385 815.025 34.1924C814.545 33.9463 814.188 33.6533 813.953 33.3135C813.725 32.9736 813.61 32.5693 813.61 32.1006C813.61 31.3213 813.938 30.6621 814.595 30.123C815.257 29.584 816.101 29.3145 817.126 29.3145C818.204 29.3145 819.077 29.5928 819.745 30.1494C820.419 30.7061 820.756 31.418 820.756 32.2852H819.121C819.121 31.8398 818.931 31.4561 818.55 31.1338C818.175 30.8115 817.7 30.6504 817.126 30.6504C816.534 30.6504 816.071 30.7793 815.737 31.0371C815.403 31.2949 815.236 31.6318 815.236 32.0479C815.236 32.4404 815.392 32.7363 815.702 32.9355C816.013 33.1348 816.572 33.3252 817.381 33.5068C818.195 33.6885 818.854 33.9053 819.358 34.1572C819.862 34.4092 820.234 34.7139 820.475 35.0713C820.721 35.4229 820.844 35.8535 820.844 36.3633C820.844 37.2129 820.504 37.8955 819.824 38.4111C819.145 38.9209 818.263 39.1758 817.179 39.1758C816.417 39.1758 815.743 39.041 815.157 38.7715C814.571 38.502 814.111 38.127 813.777 37.6465C813.449 37.1602 813.285 36.6357 813.285 36.0732H814.911C814.94 36.6182 815.157 37.0518 815.562 37.374C815.972 37.6904 816.511 37.8486 817.179 37.8486C817.794 37.8486 818.286 37.7256 818.655 37.4795C819.03 37.2275 819.218 36.8936 819.218 36.4775ZM839.204 33.2783H827.462V31.9512H839.204V33.2783ZM853.812 33.542C853.812 35.4463 853.486 36.8613 852.836 37.7871C852.186 38.7129 851.169 39.1758 849.786 39.1758C848.421 39.1758 847.41 38.7246 846.754 37.8223C846.098 36.9141 845.758 35.5605 845.734 33.7617V31.5908C845.734 29.71 846.06 28.3125 846.71 27.3984C847.36 26.4844 848.38 26.0273 849.769 26.0273C851.146 26.0273 852.159 26.4697 852.81 27.3545C853.46 28.2334 853.794 29.5928 853.812 31.4326V33.542ZM852.186 31.3184C852.186 29.9414 851.992 28.9395 851.605 28.3125C851.219 27.6797 850.606 27.3633 849.769 27.3633C848.937 27.3633 848.33 27.6768 847.949 28.3037C847.568 28.9307 847.372 29.8945 847.36 31.1953V33.7969C847.36 35.1797 847.56 36.2021 847.958 36.8643C848.362 37.5205 848.972 37.8486 849.786 37.8486C850.589 37.8486 851.184 37.5381 851.57 36.917C851.963 36.2959 852.168 35.3174 852.186 33.9814V31.3184ZM870.194 34.9395C870.036 36.293 869.535 37.3389 868.691 38.0771C867.854 38.8096 866.737 39.1758 865.343 39.1758C863.831 39.1758 862.618 38.6338 861.704 37.5498C860.796 36.4658 860.342 35.0156 860.342 33.1992V31.9688C860.342 30.7793 860.553 29.7334 860.975 28.8311C861.402 27.9287 862.006 27.2373 862.785 26.7568C863.564 26.2705 864.467 26.0273 865.492 26.0273C866.852 26.0273 867.941 26.4082 868.762 27.1699C869.582 27.9258 870.06 28.9746 870.194 30.3164H868.498C868.352 29.2969 868.032 28.5586 867.54 28.1016C867.054 27.6445 866.371 27.416 865.492 27.416C864.414 27.416 863.567 27.8145 862.952 28.6113C862.343 29.4082 862.038 30.542 862.038 32.0127V33.252C862.038 34.6406 862.328 35.7451 862.908 36.5654C863.488 37.3857 864.3 37.7959 865.343 37.7959C866.28 37.7959 866.998 37.585 867.496 37.1631C868 36.7354 868.334 35.9941 868.498 34.9395H870.194ZM873.877 30.6416C874.598 29.7568 875.535 29.3145 876.689 29.3145C878.699 29.3145 879.713 30.4482 879.73 32.7158V39H878.104V32.707C878.099 32.0215 877.94 31.5146 877.63 31.1865C877.325 30.8584 876.848 30.6943 876.197 30.6943C875.67 30.6943 875.207 30.835 874.809 31.1162C874.41 31.3975 874.1 31.7666 873.877 32.2236V39H872.251V25.5H873.877V30.6416ZM883.932 39H882.306V29.4902H883.932V39ZM882.174 26.9678C882.174 26.7041 882.253 26.4814 882.411 26.2998C882.575 26.1182 882.815 26.0273 883.132 26.0273C883.448 26.0273 883.688 26.1182 883.853 26.2998C884.017 26.4814 884.099 26.7041 884.099 26.9678C884.099 27.2314 884.017 27.4512 883.853 27.627C883.688 27.8027 883.448 27.8906 883.132 27.8906C882.815 27.8906 882.575 27.8027 882.411 27.627C882.253 27.4512 882.174 27.2314 882.174 26.9678ZM888.309 39H886.683V25.5H888.309V39ZM890.523 34.166C890.523 32.707 890.869 31.5352 891.561 30.6504C892.252 29.7598 893.157 29.3145 894.276 29.3145C895.39 29.3145 896.271 29.6953 896.922 30.457V25.5H898.548V39H897.054L896.975 37.9805C896.324 38.7773 895.419 39.1758 894.259 39.1758C893.157 39.1758 892.258 38.7246 891.561 37.8223C890.869 36.9199 890.523 35.7422 890.523 34.2891V34.166ZM892.149 34.3506C892.149 35.4287 892.372 36.2725 892.817 36.8818C893.263 37.4912 893.878 37.7959 894.663 37.7959C895.694 37.7959 896.447 37.333 896.922 36.4072V32.0391C896.436 31.1426 895.688 30.6943 894.681 30.6943C893.884 30.6943 893.263 31.002 892.817 31.6172C892.372 32.2324 892.149 33.1436 892.149 34.3506ZM905.676 30.9492C905.43 30.9082 905.163 30.8877 904.876 30.8877C903.81 30.8877 903.086 31.3418 902.705 32.25V39H901.079V29.4902H902.661L902.688 30.5889C903.221 29.7393 903.977 29.3145 904.955 29.3145C905.271 29.3145 905.512 29.3555 905.676 29.4375V30.9492ZM910.949 39.1758C909.66 39.1758 908.611 38.7539 907.803 37.9102C906.994 37.0605 906.59 35.9268 906.59 34.5088V34.21C906.59 33.2666 906.769 32.4258 907.126 31.6875C907.489 30.9434 907.993 30.3633 908.638 29.9473C909.288 29.5254 909.991 29.3145 910.747 29.3145C911.983 29.3145 912.944 29.7217 913.63 30.5361C914.315 31.3506 914.658 32.5166 914.658 34.0342V34.7109H908.216C908.239 35.6484 908.512 36.4072 909.033 36.9873C909.561 37.5615 910.229 37.8486 911.037 37.8486C911.611 37.8486 912.098 37.7314 912.496 37.4971C912.895 37.2627 913.243 36.9521 913.542 36.5654L914.535 37.3389C913.738 38.5635 912.543 39.1758 910.949 39.1758ZM910.747 30.6504C910.091 30.6504 909.54 30.8906 909.095 31.3711C908.649 31.8457 908.374 32.5137 908.269 33.375H913.032V33.252C912.985 32.4258 912.763 31.7871 912.364 31.3359C911.966 30.8789 911.427 30.6504 910.747 30.6504ZM918.086 29.4902L918.139 30.6855C918.865 29.7715 919.814 29.3145 920.986 29.3145C922.996 29.3145 924.01 30.4482 924.027 32.7158V39H922.401V32.707C922.396 32.0215 922.237 31.5146 921.927 31.1865C921.622 30.8584 921.145 30.6943 920.494 30.6943C919.967 30.6943 919.504 30.835 919.105 31.1162C918.707 31.3975 918.396 31.7666 918.174 32.2236V39H916.548V29.4902H918.086ZM942.722 33.2783H930.979V31.9512H942.722V33.2783ZM954.648 39H953.014V28.1631L949.735 29.3672V27.8906L954.394 26.1416H954.648V39ZM968.992 33.8232H965.986V39H964.29V26.2031H968.526C969.968 26.2031 971.075 26.5312 971.849 27.1875C972.628 27.8438 973.018 28.7988 973.018 30.0527C973.018 30.8496 972.801 31.5439 972.367 32.1357C971.939 32.7275 971.342 33.1699 970.574 33.4629L973.58 38.8945V39H971.77L968.992 33.8232ZM965.986 32.4434H968.579C969.417 32.4434 970.082 32.2266 970.574 31.793C971.072 31.3594 971.321 30.7793 971.321 30.0527C971.321 29.2617 971.084 28.6553 970.609 28.2334C970.141 27.8115 969.461 27.5977 968.57 27.5918H965.986V32.4434ZM974.705 34.1572C974.705 33.2256 974.887 32.3877 975.25 31.6436C975.619 30.8994 976.129 30.3252 976.779 29.9209C977.436 29.5166 978.183 29.3145 979.021 29.3145C980.315 29.3145 981.361 29.7627 982.158 30.6592C982.961 31.5557 983.362 32.748 983.362 34.2363V34.3506C983.362 35.2764 983.184 36.1084 982.826 36.8467C982.475 37.5791 981.968 38.1504 981.306 38.5605C980.649 38.9707 979.894 39.1758 979.038 39.1758C977.749 39.1758 976.703 38.7275 975.9 37.8311C975.104 36.9346 974.705 35.748 974.705 34.2715V34.1572ZM976.34 34.3506C976.34 35.4053 976.583 36.252 977.069 36.8906C977.562 37.5293 978.218 37.8486 979.038 37.8486C979.864 37.8486 980.521 37.5264 981.007 36.8818C981.493 36.2314 981.736 35.3232 981.736 34.1572C981.736 33.1143 981.487 32.2705 980.989 31.626C980.497 30.9756 979.841 30.6504 979.021 30.6504C978.218 30.6504 977.57 30.9697 977.078 31.6084C976.586 32.2471 976.34 33.1611 976.34 34.3506ZM984.971 34.1572C984.971 33.2256 985.152 32.3877 985.516 31.6436C985.885 30.8994 986.395 30.3252 987.045 29.9209C987.701 29.5166 988.448 29.3145 989.286 29.3145C990.581 29.3145 991.627 29.7627 992.424 30.6592C993.227 31.5557 993.628 32.748 993.628 34.2363V34.3506C993.628 35.2764 993.449 36.1084 993.092 36.8467C992.74 37.5791 992.233 38.1504 991.571 38.5605C990.915 38.9707 990.159 39.1758 989.304 39.1758C988.015 39.1758 986.969 38.7275 986.166 37.8311C985.369 36.9346 984.971 35.748 984.971 34.2715V34.1572ZM986.605 34.3506C986.605 35.4053 986.849 36.252 987.335 36.8906C987.827 37.5293 988.483 37.8486 989.304 37.8486C990.13 37.8486 990.786 37.5264 991.272 36.8818C991.759 36.2314 992.002 35.3232 992.002 34.1572C992.002 33.1143 991.753 32.2705 991.255 31.626C990.763 30.9756 990.106 30.6504 989.286 30.6504C988.483 30.6504 987.836 30.9697 987.344 31.6084C986.852 32.2471 986.605 33.1611 986.605 34.3506ZM997.196 29.4902L997.24 30.5449C997.938 29.7246 998.878 29.3145 1000.06 29.3145C1001.39 29.3145 1002.3 29.8242 1002.78 30.8438C1003.09 30.3867 1003.5 30.0176 1004.01 29.7363C1004.52 29.4551 1005.12 29.3145 1005.81 29.3145C1007.9 29.3145 1008.96 30.4189 1008.99 32.6279V39H1007.37V32.7246C1007.37 32.0449 1007.21 31.5381 1006.9 31.2041C1006.59 30.8643 1006.07 30.6943 1005.33 30.6943C1004.73 30.6943 1004.23 30.876 1003.83 31.2393C1003.43 31.5967 1003.2 32.0801 1003.14 32.6895V39H1001.5V32.7686C1001.5 31.3857 1000.83 30.6943 999.473 30.6943C998.406 30.6943 997.677 31.1484 997.284 32.0566V39H995.658V29.4902H997.196Z" fill="#383838"/>
<rect x="468.5" y="1.5" width="256" height="61" rx="6.5" stroke="#F5BD41" stroke-width="3"/>
<path d="M502.088 28.5917H497.975V39.9999H496.296V28.5917H492.191V27.2031H502.088V28.5917ZM508.759 39.0595C508.126 39.8036 507.197 40.1757 505.973 40.1757C504.959 40.1757 504.186 39.8828 503.652 39.2968C503.125 38.705 502.858 37.832 502.853 36.6777V30.4902H504.479V36.6337C504.479 38.0751 505.064 38.7958 506.236 38.7958C507.479 38.7958 508.305 38.3329 508.715 37.4072V30.4902H510.341V39.9999H508.794L508.759 39.0595ZM516.766 40.1757C515.477 40.1757 514.428 39.7538 513.619 38.9101C512.811 38.0605 512.406 36.9267 512.406 35.5087V35.2099C512.406 34.2665 512.585 33.4257 512.942 32.6874C513.306 31.9433 513.81 31.3632 514.454 30.9472C515.104 30.5253 515.808 30.3144 516.563 30.3144C517.8 30.3144 518.761 30.7216 519.446 31.5361C520.132 32.3505 520.475 33.5165 520.475 35.0341V35.7109H514.032C514.056 36.6484 514.328 37.4072 514.85 37.9872C515.377 38.5615 516.045 38.8486 516.854 38.8486C517.428 38.8486 517.914 38.7314 518.312 38.497C518.711 38.2626 519.06 37.9521 519.358 37.5654L520.352 38.3388C519.555 39.5634 518.359 40.1757 516.766 40.1757ZM516.563 31.6503C515.907 31.6503 515.356 31.8906 514.911 32.371C514.466 32.8456 514.19 33.5136 514.085 34.3749H518.849V34.2519C518.802 33.4257 518.579 32.787 518.181 32.3359C517.782 31.8788 517.243 31.6503 516.563 31.6503ZM532.006 39.9999H530.371V29.163L527.093 30.3671V28.8906L531.751 27.1415H532.006V39.9999ZM537.517 33.5839L538.167 27.2031H544.724V28.706H539.547L539.16 32.1953C539.787 31.8261 540.499 31.6415 541.296 31.6415C542.462 31.6415 543.388 32.0283 544.073 32.8017C544.759 33.5693 545.102 34.6093 545.102 35.9218C545.102 37.2402 544.744 38.2802 544.029 39.0419C543.32 39.7978 542.327 40.1757 541.05 40.1757C539.919 40.1757 538.996 39.8622 538.281 39.2353C537.566 38.6083 537.159 37.7411 537.06 36.6337H538.598C538.697 37.3661 538.958 37.9199 539.38 38.2949C539.802 38.664 540.358 38.8486 541.05 38.8486C541.806 38.8486 542.397 38.5908 542.825 38.0751C543.259 37.5595 543.476 36.8476 543.476 35.9394C543.476 35.0839 543.241 34.3984 542.772 33.8828C542.31 33.3613 541.691 33.1005 540.918 33.1005C540.209 33.1005 539.652 33.2558 539.248 33.5663L538.817 33.9179L537.517 33.5839ZM555.534 34.2958C554.087 33.8798 553.032 33.3701 552.37 32.7665C551.714 32.1572 551.386 31.4072 551.386 30.5165C551.386 29.5087 551.787 28.6767 552.59 28.0204C553.398 27.3583 554.447 27.0273 555.736 27.0273C556.615 27.0273 557.397 27.1972 558.083 27.537C558.774 27.8769 559.308 28.3456 559.683 28.9433C560.063 29.541 560.254 30.1943 560.254 30.9033H558.558C558.558 30.1298 558.312 29.5234 557.819 29.0839C557.327 28.6386 556.633 28.416 555.736 28.416C554.904 28.416 554.254 28.6005 553.785 28.9697C553.322 29.3329 553.091 29.8398 553.091 30.4902C553.091 31.0117 553.311 31.454 553.75 31.8173C554.195 32.1747 554.948 32.5029 556.009 32.8017C557.075 33.1005 557.907 33.4316 558.505 33.7949C559.108 34.1523 559.554 34.5712 559.841 35.0517C560.134 35.5322 560.28 36.0976 560.28 36.748C560.28 37.7851 559.876 38.6171 559.067 39.2441C558.259 39.8652 557.178 40.1757 555.824 40.1757C554.945 40.1757 554.125 40.0087 553.363 39.6747C552.602 39.3349 552.013 38.872 551.597 38.2861C551.187 37.7001 550.981 37.0351 550.981 36.291H552.678C552.678 37.0644 552.962 37.6767 553.53 38.1279C554.104 38.5732 554.869 38.7958 555.824 38.7958C556.715 38.7958 557.397 38.6142 557.872 38.2509C558.347 37.8876 558.584 37.3925 558.584 36.7656C558.584 36.1386 558.364 35.6552 557.925 35.3154C557.485 34.9697 556.688 34.6298 555.534 34.2958ZM566.143 40.1757C564.854 40.1757 563.805 39.7538 562.996 38.9101C562.188 38.0605 561.783 36.9267 561.783 35.5087V35.2099C561.783 34.2665 561.962 33.4257 562.319 32.6874C562.683 31.9433 563.187 31.3632 563.831 30.9472C564.481 30.5253 565.185 30.3144 565.94 30.3144C567.177 30.3144 568.138 30.7216 568.823 31.5361C569.509 32.3505 569.852 33.5165 569.852 35.0341V35.7109H563.409C563.433 36.6484 563.705 37.4072 564.227 37.9872C564.754 38.5615 565.422 38.8486 566.23 38.8486C566.805 38.8486 567.291 38.7314 567.689 38.497C568.088 38.2626 568.437 37.9521 568.735 37.5654L569.729 38.3388C568.932 39.5634 567.736 40.1757 566.143 40.1757ZM565.94 31.6503C565.284 31.6503 564.733 31.8906 564.288 32.371C563.843 32.8456 563.567 33.5136 563.462 34.3749H568.226V34.2519C568.179 33.4257 567.956 32.787 567.558 32.3359C567.159 31.8788 566.62 31.6503 565.94 31.6503ZM579.774 35.3505C579.774 36.7978 579.443 37.9638 578.781 38.8486C578.119 39.7333 577.223 40.1757 576.092 40.1757C574.938 40.1757 574.029 39.8095 573.367 39.0771V43.6562H571.741V30.4902H573.227L573.306 31.5449C573.968 30.7245 574.888 30.3144 576.065 30.3144C577.208 30.3144 578.11 30.7451 578.772 31.6064C579.44 32.4677 579.774 33.666 579.774 35.2011V35.3505ZM578.148 35.166C578.148 34.0937 577.92 33.247 577.463 32.6259C577.006 32.0048 576.379 31.6943 575.582 31.6943C574.598 31.6943 573.859 32.1308 573.367 33.0038V37.5478C573.854 38.415 574.598 38.8486 575.6 38.8486C576.379 38.8486 576.997 38.541 577.454 37.9257C577.917 37.3046 578.148 36.3847 578.148 35.166ZM584.055 28.1874V30.4902H585.83V31.747H584.055V37.6445C584.055 38.0253 584.134 38.3124 584.292 38.5058C584.45 38.6933 584.72 38.787 585.101 38.787C585.288 38.787 585.546 38.7519 585.874 38.6816V39.9999C585.446 40.1171 585.03 40.1757 584.626 40.1757C583.899 40.1757 583.352 39.956 582.982 39.5165C582.613 39.0771 582.429 38.4531 582.429 37.6445V31.747H580.697V30.4902H582.429V28.1874H584.055ZM603.979 34.2783H592.237V32.9511H603.979V34.2783ZM614.755 34.2958C613.308 33.8798 612.253 33.3701 611.591 32.7665C610.935 32.1572 610.606 31.4072 610.606 30.5165C610.606 29.5087 611.008 28.6767 611.811 28.0204C612.619 27.3583 613.668 27.0273 614.957 27.0273C615.836 27.0273 616.618 27.1972 617.304 27.537C617.995 27.8769 618.528 28.3456 618.903 28.9433C619.284 29.541 619.475 30.1943 619.475 30.9033H617.778C617.778 30.1298 617.532 29.5234 617.04 29.0839C616.548 28.6386 615.854 28.416 614.957 28.416C614.125 28.416 613.475 28.6005 613.006 28.9697C612.543 29.3329 612.312 29.8398 612.312 30.4902C612.312 31.0117 612.531 31.454 612.971 31.8173C613.416 32.1747 614.169 32.5029 615.229 32.8017C616.296 33.1005 617.128 33.4316 617.726 33.7949C618.329 34.1523 618.774 34.5712 619.062 35.0517C619.354 35.5322 619.501 36.0976 619.501 36.748C619.501 37.7851 619.097 38.6171 618.288 39.2441C617.479 39.8652 616.398 40.1757 615.045 40.1757C614.166 40.1757 613.346 40.0087 612.584 39.6747C611.822 39.3349 611.233 38.872 610.817 38.2861C610.407 37.7001 610.202 37.0351 610.202 36.291H611.898C611.898 37.0644 612.183 37.6767 612.751 38.1279C613.325 38.5732 614.09 38.7958 615.045 38.7958C615.936 38.7958 616.618 38.6142 617.093 38.2509C617.567 37.8876 617.805 37.3925 617.805 36.7656C617.805 36.1386 617.585 35.6552 617.146 35.3154C616.706 34.9697 615.909 34.6298 614.755 34.2958ZM627.288 39.9999C627.194 39.8124 627.118 39.4785 627.06 38.998C626.304 39.7831 625.401 40.1757 624.353 40.1757C623.415 40.1757 622.645 39.912 622.041 39.3847C621.443 38.8515 621.145 38.1777 621.145 37.3632C621.145 36.373 621.52 35.6054 622.27 35.0605C623.025 34.5097 624.086 34.2343 625.451 34.2343H627.033V33.4872C627.033 32.9189 626.863 32.4677 626.523 32.1337C626.184 31.7939 625.683 31.624 625.021 31.624C624.44 31.624 623.954 31.7704 623.562 32.0634C623.169 32.3564 622.973 32.7109 622.973 33.1269H621.338C621.338 32.6523 621.505 32.1953 621.839 31.7558C622.179 31.3105 622.636 30.9589 623.21 30.7011C623.79 30.4433 624.426 30.3144 625.117 30.3144C626.213 30.3144 627.071 30.5898 627.692 31.1406C628.313 31.6855 628.636 32.4384 628.659 33.3994V37.7763C628.659 38.6494 628.771 39.3437 628.993 39.8593V39.9999H627.288ZM624.59 38.7607C625.1 38.7607 625.583 38.6288 626.04 38.3652C626.497 38.1015 626.828 37.7587 627.033 37.3369V35.3857H625.759C623.767 35.3857 622.771 35.9687 622.771 37.1347C622.771 37.6445 622.94 38.0429 623.28 38.33C623.62 38.6171 624.057 38.7607 624.59 38.7607ZM633.414 28.1874V30.4902H635.189V31.747H633.414V37.6445C633.414 38.0253 633.493 38.3124 633.651 38.5058C633.81 38.6933 634.079 38.787 634.46 38.787C634.647 38.787 634.905 38.7519 635.233 38.6816V39.9999C634.806 40.1171 634.39 40.1757 633.985 40.1757C633.259 40.1757 632.711 39.956 632.342 39.5165C631.973 39.0771 631.788 38.4531 631.788 37.6445V31.747H630.057V30.4902H631.788V28.1874H633.414ZM646.738 39.9999H645.104V29.163L641.825 30.3671V28.8906L646.483 27.1415H646.738V39.9999ZM657.733 34.3749C657.394 34.7792 656.986 35.1044 656.512 35.3505C656.043 35.5966 655.527 35.7197 654.965 35.7197C654.227 35.7197 653.582 35.538 653.031 35.1747C652.486 34.8115 652.064 34.3017 651.766 33.6454C651.467 32.9833 651.317 32.2538 651.317 31.457C651.317 30.6015 651.479 29.831 651.801 29.1454C652.129 28.4599 652.592 27.9355 653.189 27.5722C653.787 27.2089 654.484 27.0273 655.281 27.0273C656.547 27.0273 657.543 27.5019 658.27 28.4511C659.002 29.3945 659.368 30.6835 659.368 32.3183V32.7929C659.368 35.2831 658.876 37.1025 657.892 38.2509C656.907 39.3935 655.422 39.9794 653.436 40.0087H653.119V38.6376H653.462C654.804 38.6142 655.835 38.2656 656.556 37.5917C657.276 36.912 657.669 35.8398 657.733 34.3749ZM655.229 34.3749C655.773 34.3749 656.274 34.2079 656.731 33.874C657.194 33.54 657.531 33.1269 657.742 32.6347V31.9843C657.742 30.9179 657.511 30.0507 657.048 29.3828C656.585 28.7148 655.999 28.3808 655.29 28.3808C654.575 28.3808 654.001 28.6562 653.567 29.207C653.134 29.7519 652.917 30.4726 652.917 31.3691C652.917 32.2421 653.125 32.9628 653.541 33.5312C653.963 34.0937 654.525 34.3749 655.229 34.3749ZM670.267 34.2958C668.819 33.8798 667.765 33.3701 667.103 32.7665C666.446 32.1572 666.118 31.4072 666.118 30.5165C666.118 29.5087 666.52 28.6767 667.322 28.0204C668.131 27.3583 669.18 27.0273 670.469 27.0273C671.348 27.0273 672.13 27.1972 672.815 27.537C673.507 27.8769 674.04 28.3456 674.415 28.9433C674.796 29.541 674.986 30.1943 674.986 30.9033H673.29C673.29 30.1298 673.044 29.5234 672.552 29.0839C672.06 28.6386 671.365 28.416 670.469 28.416C669.637 28.416 668.986 28.6005 668.518 28.9697C668.055 29.3329 667.823 29.8398 667.823 30.4902C667.823 31.0117 668.043 31.454 668.482 31.8173C668.928 32.1747 669.681 32.5029 670.741 32.8017C671.808 33.1005 672.64 33.4316 673.237 33.7949C673.841 34.1523 674.286 34.5712 674.573 35.0517C674.866 35.5322 675.013 36.0976 675.013 36.748C675.013 37.7851 674.608 38.6171 673.8 39.2441C672.991 39.8652 671.91 40.1757 670.557 40.1757C669.678 40.1757 668.857 40.0087 668.096 39.6747C667.334 39.3349 666.745 38.872 666.329 38.2861C665.919 37.7001 665.714 37.0351 665.714 36.291H667.41C667.41 37.0644 667.694 37.6767 668.263 38.1279C668.837 38.5732 669.602 38.7958 670.557 38.7958C671.447 38.7958 672.13 38.6142 672.604 38.2509C673.079 37.8876 673.316 37.3925 673.316 36.7656C673.316 36.1386 673.097 35.6552 672.657 35.3154C672.218 34.9697 671.421 34.6298 670.267 34.2958ZM680.875 40.1757C679.586 40.1757 678.537 39.7538 677.729 38.9101C676.92 38.0605 676.516 36.9267 676.516 35.5087V35.2099C676.516 34.2665 676.694 33.4257 677.052 32.6874C677.415 31.9433 677.919 31.3632 678.563 30.9472C679.214 30.5253 679.917 30.3144 680.673 30.3144C681.909 30.3144 682.87 30.7216 683.556 31.5361C684.241 32.3505 684.584 33.5165 684.584 35.0341V35.7109H678.142C678.165 36.6484 678.438 37.4072 678.959 37.9872C679.486 38.5615 680.154 38.8486 680.963 38.8486C681.537 38.8486 682.023 38.7314 682.422 38.497C682.82 38.2626 683.169 37.9521 683.468 37.5654L684.461 38.3388C683.664 39.5634 682.469 40.1757 680.875 40.1757ZM680.673 31.6503C680.017 31.6503 679.466 31.8906 679.021 32.371C678.575 32.8456 678.3 33.5136 678.194 34.3749H682.958V34.2519C682.911 33.4257 682.688 32.787 682.29 32.3359C681.892 31.8788 681.353 31.6503 680.673 31.6503ZM694.507 35.3505C694.507 36.7978 694.176 37.9638 693.514 38.8486C692.852 39.7333 691.955 40.1757 690.824 40.1757C689.67 40.1757 688.762 39.8095 688.1 39.0771V43.6562H686.474V30.4902H687.959L688.038 31.5449C688.7 30.7245 689.62 30.3144 690.798 30.3144C691.94 30.3144 692.843 30.7451 693.505 31.6064C694.173 32.4677 694.507 33.666 694.507 35.2011V35.3505ZM692.881 35.166C692.881 34.0937 692.652 33.247 692.195 32.6259C691.738 32.0048 691.111 31.6943 690.314 31.6943C689.33 31.6943 688.592 32.1308 688.1 33.0038V37.5478C688.586 38.415 689.33 38.8486 690.332 38.8486C691.111 38.8486 691.729 38.541 692.187 37.9257C692.649 37.3046 692.881 36.3847 692.881 35.166ZM698.787 28.1874V30.4902H700.562V31.747H698.787V37.6445C698.787 38.0253 698.866 38.3124 699.024 38.5058C699.183 38.6933 699.452 38.787 699.833 38.787C700.021 38.787 700.278 38.7519 700.606 38.6816V39.9999C700.179 40.1171 699.763 40.1757 699.358 40.1757C698.632 40.1757 698.084 39.956 697.715 39.5165C697.346 39.0771 697.161 38.4531 697.161 37.6445V31.747H695.43V30.4902H697.161V28.1874H698.787Z" fill="#383838"/>
</svg>
